<svg width="17" height="16" viewBox="0 0 17 16" fill="none" xmlns="http://www.w3.org/2000/svg">
<rect width="16" height="16" transform="translate(0.39917 0.00195312)" fill="white" style="mix-blend-mode:multiply"/>
<path d="M8.39917 2.00195C8.89362 2.00195 9.37697 2.14858 9.7881 2.42328C10.1992 2.69798 10.5196 3.08843 10.7089 3.54524C10.8981 4.00206 10.9476 4.50473 10.8511 4.98968C10.7547 5.47463 10.5166 5.92009 10.1669 6.26972C9.81731 6.61935 9.37185 6.85745 8.8869 6.95392C8.40194 7.05038 7.89928 7.00087 7.44246 6.81165C6.98565 6.62243 6.5952 6.302 6.3205 5.89088C6.04579 5.47976 5.89917 4.99641 5.89917 4.50195C5.89917 3.83891 6.16256 3.20303 6.6314 2.73419C7.10024 2.26535 7.73613 2.00195 8.39917 2.00195M8.39917 1.00195C7.70694 1.00195 7.03025 1.20722 6.45467 1.59181C5.8791 1.97639 5.4305 2.52302 5.16559 3.16256C4.90069 3.8021 4.83137 4.50584 4.96642 5.18477C5.10147 5.8637 5.43481 6.48734 5.9243 6.97683C6.41378 7.46631 7.03742 7.79965 7.71635 7.9347C8.39529 8.06975 9.09902 8.00044 9.73856 7.73553C10.3781 7.47062 10.9247 7.02202 11.3093 6.44645C11.6939 5.87088 11.8992 5.19419 11.8992 4.50195C11.8992 3.5737 11.5304 2.68346 10.874 2.02708C10.2177 1.3707 9.32743 1.00195 8.39917 1.00195V1.00195ZM13.3992 15.002H12.3992V12.502C12.3992 12.1736 12.3345 11.8486 12.2089 11.5452C12.0832 11.2419 11.8991 10.9663 11.6669 10.7342C11.4348 10.502 11.1592 10.3179 10.8559 10.1923C10.5526 10.0666 10.2275 10.002 9.89917 10.002H6.89917C6.23613 10.002 5.60024 10.2653 5.1314 10.7342C4.66256 11.203 4.39917 11.8389 4.39917 12.502V15.002H3.39917V12.502C3.39917 11.5737 3.76792 10.6835 4.4243 10.0271C5.08067 9.3707 5.97091 9.00195 6.89917 9.00195H9.89917C10.8274 9.00195 11.7177 9.3707 12.374 10.0271C13.0304 10.6835 13.3992 11.5737 13.3992 12.502V15.002Z" fill="#6929C4"/>
</svg>
