<svg width="11" height="14" viewBox="0 0 11 14" fill="none" xmlns="http://www.w3.org/2000/svg">
<path d="M5.39917 1.00195C5.89362 1.00195 6.37697 1.14858 6.7881 1.42328C7.19922 1.69798 7.51965 2.08843 7.70887 2.54524C7.89809 3.00206 7.9476 3.50473 7.85113 3.98968C7.75467 4.47463 7.51657 4.92009 7.16694 5.26972C6.81731 5.61935 6.37185 5.85745 5.8869 5.95392C5.40194 6.05038 4.89928 6.00087 4.44246 5.81165C3.98565 5.62243 3.5952 5.302 3.3205 4.89088C3.04579 4.47976 2.89917 3.99641 2.89917 3.50195C2.89917 2.83891 3.16256 2.20303 3.6314 1.73419C4.10024 1.26535 4.73613 1.00195 5.39917 1.00195M5.39917 0.00195312C4.70694 0.00195312 4.03025 0.207225 3.45467 0.59181C2.8791 0.976394 2.4305 1.52302 2.16559 2.16256C1.90069 2.8021 1.83137 3.50584 1.96642 4.18477C2.10147 4.8637 2.43481 5.48734 2.9243 5.97683C3.41378 6.46631 4.03742 6.79965 4.71635 6.9347C5.39529 7.06975 6.09902 7.00044 6.73856 6.73553C7.3781 6.47062 7.92473 6.02202 8.30931 5.44645C8.6939 4.87088 8.89917 4.19419 8.89917 3.50195C8.89917 2.5737 8.53042 1.68346 7.87404 1.02708C7.21767 0.370702 6.32743 0.00195313 5.39917 0.00195312V0.00195312ZM10.3992 14.002H9.39917V11.502C9.39917 11.1736 9.33451 10.8486 9.20887 10.5452C9.08323 10.2419 8.89908 9.96633 8.66694 9.73419C8.43479 9.50204 8.15919 9.31789 7.85588 9.19225C7.55256 9.06662 7.22747 9.00195 6.89917 9.00195H3.89917C3.23613 9.00195 2.60024 9.26535 2.1314 9.73419C1.66256 10.203 1.39917 10.8389 1.39917 11.502V14.002H0.39917V11.502C0.39917 10.5737 0.767919 9.68346 1.4243 9.02708C2.08067 8.3707 2.97091 8.00195 3.89917 8.00195H6.89917C7.82743 8.00195 8.71767 8.3707 9.37404 9.02708C10.0304 9.68346 10.3992 10.5737 10.3992 11.502V14.002Z" fill="#6929C4"/>
</svg>
